<?xml version="1.0" encoding="UTF-8"?>
<svg width="70px" height="70px" viewBox="0 0 70 70" version="1.1" xmlns="http://www.w3.org/2000/svg" xmlns:xlink="http://www.w3.org/1999/xlink">
    <!-- Generator: Sketch 54.1 (76490) - https://sketchapp.com -->
    <title>candy-lime</title>
    <desc>Created with Sketch.</desc>
    <g id="candy-lime" stroke="none" stroke-width="1" fill="none" fill-rule="evenodd">
        <rect id="Rectangle" fill="#D7CCC8" x="0" y="0" width="70" height="70"></rect>
        <g id="icons8-minecraft_pug" fill-rule="nonzero">
            <rect id="Rectangle" fill="#D7CCC8" x="4" y="3" width="63" height="60"></rect>
            <polygon id="Path" fill="#263238" points="11 36.5 11 30 4 30 4 36.5 4 43 11 43 18 43 18 36.5"></polygon>
            <polygon id="Path" fill="#263238" points="60 36.5 60 30 67 30 67 36.5 67 43 60 43 53 43 53 36.5"></polygon>
            <rect id="Rectangle" fill="#FFFFFF" x="53" y="30" width="7" height="7"></rect>
            <rect id="Rectangle" fill="#FFFFFF" x="11" y="30" width="7" height="7"></rect>
            <polygon id="Path" fill="#263238" points="18 0 0 0 0 17 7.2 17 7.2 6.8 18 6.8"></polygon>
            <polygon id="Path" fill="#263238" points="52 0 70 0 70 17 62.8 17 62.8 6.8 52 6.8"></polygon>
            <polygon id="Path" fill="#263238" points="49 50.5 49 43.75 42 43.75 42 37 35 37 28 37 28 43.75 21 43.75 21 50.5 14 50.5 14 64 56 64 56 50.5"></polygon>
            <rect id="Rectangle" fill="#EF9A9A" x="28" y="57" width="14" height="13"></rect>
            <rect id="Rectangle" fill="#E57373" x="28" y="57" width="7" height="13"></rect>
        </g>
    </g>
</svg>